<svg width="255" height="227" viewBox="0 0 255 227" fill="none" xmlns="http://www.w3.org/2000/svg">
<path d="M150.15 153.461L162.717 133.486L178.395 168.163C176.321 166.326 150.15 153.461 150.15 153.461ZM135.243 148.869L112.629 138.466L119.683 105.42L141.941 91.7868L156.76 117.868C156.76 117.868 154.151 123.084 145.201 136.214C139.984 143.861 135.243 148.869 135.243 148.869ZM96.298 183.782C105.397 170.712 109.19 153.225 109.19 153.225L125.017 160.457C111.354 176.995 96.298 183.782 96.298 183.782ZM80.1748 121.099C80.1748 121.099 95.4088 119.677 107.175 111.408L101.603 135.207C101.603 135.207 91.2297 131.621 80.1748 121.099ZM124.127 48.1594L134.322 72.9072L121.281 81.8281C121.281 81.8281 124.453 50.2343 124.127 48.1594ZM183.878 72.7289C183.878 72.7289 178.306 78.7158 173.742 85.7101C170.097 91.2821 164.198 102.515 164.198 102.515L154.537 81.8869C154.537 81.8869 166.747 69.38 183.878 72.7289ZM221.993 222.787C202.462 181.381 185.39 145.492 171.017 116.831C182.279 97.5364 192.356 82.3912 201.544 73.7373C201.899 73.3814 202.047 73.3223 202.254 73.1447C204.477 70.9812 207.915 68.5214 207.737 66.0613C207.53 63.6014 203.588 61.5861 203.588 61.5861V61.5255C182.634 49.2552 163.903 55.4201 145.795 66.8308C135.866 47.0325 127.686 29.8125 120.632 10.6668C119.714 8.38465 118.261 5.74699 117.313 5.89486C116.216 6.07241 116.009 8.97721 116.009 8.97721L115.948 9.00757C114.703 35.4446 112.362 65.3478 108.331 93.6535C91.912 104.679 74.9887 112.355 56.3163 106.427H56.2556C52.8473 105.42 49.261 103.76 47.8978 104.946C46.5641 106.131 49.1427 109.717 49.1427 109.717C49.1427 109.717 49.1426 109.778 49.1123 109.806C63.7535 131.146 79.5208 142.26 97.2132 149.194C90.8114 172.371 82.4536 190.806 72.1691 204.617V204.647C72.1691 204.647 70.3019 206.929 71.0725 208.322C71.8138 209.656 73.2954 210.13 77.5631 208.974C101.481 202.157 121.13 189.62 138.114 167.63C160.639 177.737 187.789 196.349 217.603 223.438C217.663 223.438 217.721 223.438 217.78 223.499C218.58 224.388 221.9 226.878 222.522 225.959C222.967 225.307 222.374 223.706 221.989 222.788" fill="#2EA347"/>
<path d="M0.686768 106.337C0.686768 106.337 7.77019 135.619 26.4422 145.31C51.0715 158.114 60.3496 142.258 67.936 143.443C67.936 143.443 60.8526 140.183 52.7317 128.15C44.5812 116.117 23.0048 114.813 15.5078 114.013C8.00947 113.213 3.08741 109.893 0.686768 106.337Z" fill="#EB1C26"/>
<path d="M87.3794 154.082C87.3794 154.082 77.5395 181.141 60.1716 194.27C41.4995 208.348 31.0077 198.182 27.7182 208.941C27.7182 208.941 16.3075 183.274 33.6754 172.161C55.0445 158.527 80.387 166.174 87.3794 154.082Z" fill="#EB1C26"/>
<path d="M100.744 72.1942C100.744 72.1942 92.9195 97.505 64.1108 92.2591C33.1689 86.5983 26.7661 64.9034 8.57031 66.3852C8.57031 66.3852 34.7998 55.3006 61.2088 59.8648C87.6161 64.3994 92.2362 74.8618 100.744 72.1942Z" fill="#EB1C26"/>
<path d="M47.8411 4.8855C47.8411 4.8855 60.5262 0.70642 65.95 19.6452C71.3441 38.5839 78.6645 54.8844 103.353 51.506C103.353 51.506 100.182 50.6169 98.1964 43.2667C94.9065 31.0856 83.4051 -7.95012 47.8411 4.8855Z" fill="#EB1C26"/>
<path d="M156.317 45.3706C156.317 45.3706 159.696 41.7843 166.512 41.3694C181.035 40.51 199.972 39.9765 237.049 0.499146C237.049 0.499146 231.211 7.01946 204.36 3.3444C178.782 -0.152752 152.612 18.1341 156.317 45.3706Z" fill="#EB1C26"/>
<path d="M193.779 111.968C193.779 111.968 186.696 93.5626 199.915 83.3966C220.691 67.4513 247.01 72.8751 253.5 63.7762C253.5 63.7762 241.378 85.2044 221.905 98.8098C209.309 107.612 198.106 106.099 193.779 111.968Z" fill="#EB1C26"/>
<path d="M189.451 118.993C189.451 118.993 194.548 129.218 207.648 130.996C220.748 132.774 235.478 138.642 243.273 154.973C251.067 171.333 254.832 170.147 254.832 170.147C254.832 170.147 225.757 185.026 207.795 166.028C189.835 147.03 189.451 118.993 189.451 118.993Z" fill="#EB1C26"/>
</svg>
